<?xml version="1.0" standalone="no"?>
<!DOCTYPE svg PUBLIC "-//W3C//DTD SVG 20010904//EN"
 "http://www.w3.org/TR/2001/REC-SVG-20010904/DTD/svg10.dtd">
<svg version="1.0" xmlns="http://www.w3.org/2000/svg"
 width="720.000000pt" height="720.000000pt" viewBox="0 0 720.000000 720.000000"
 preserveAspectRatio="xMidYMid meet">
<metadata>
Created by potrace 1.11, written by Peter Selinger 2001-2013
</metadata>
<g transform="translate(0.000000,720.000000) scale(0.100000,-0.100000)"
fill="#000000" stroke="none">
<path d="M59 6641 c-44 -47 -62 -98 -56 -156 6 -55 43 -155 58 -155 5 0 9 -6
9 -12 0 -7 16 -31 36 -53 19 -22 58 -67 87 -99 81 -92 133 -161 147 -198 33
-83 149 -161 371 -249 282 -112 348 -161 397 -301 31 -89 70 -138 171 -220 11
-10 21 -14 21 -10 0 4 4 2 8 -4 6 -9 172 -84 187 -84 10 0 72 -27 144 -63 55
-28 85 -53 151 -127 41 -46 93 -153 108 -225 13 -61 7 -240 -9 -275 -1 -3 -3
-9 -4 -15 -5 -39 -47 -138 -101 -241 -34 -67 -61 -124 -58 -126 2 -3 -2 -11
-11 -18 -8 -7 -15 -18 -15 -24 0 -6 -12 -33 -26 -61 -67 -131 -84 -165 -86
-172 0 -5 -13 -30 -28 -58 -34 -64 -94 -221 -116 -305 -23 -87 -28 -273 -10
-334 8 -25 11 -46 8 -46 -3 0 -1 -5 6 -12 7 -7 12 -18 12 -26 0 -25 78 -171
117 -219 82 -102 154 -159 269 -216 78 -39 116 -50 224 -66 30 -5 58 -7 61 -5
7 4 53 11 114 19 81 10 235 47 275 66 108 52 170 136 173 235 1 43 6 51 62
105 106 102 166 157 205 189 22 18 49 41 62 52 26 22 64 52 123 97 22 17 45
34 50 39 55 44 303 202 390 247 213 112 299 181 350 283 25 49 28 52 40 35 7
-10 16 -35 19 -56 3 -20 6 -40 7 -44 1 -4 1 -10 0 -13 -1 -3 -3 -39 -6 -80 -2
-41 -11 -106 -20 -145 -9 -38 -19 -79 -21 -90 -23 -122 -111 -418 -150 -502
-8 -17 -14 -33 -14 -36 0 -2 -17 -40 -37 -83 -20 -44 -37 -81 -38 -84 -1 -6
-105 -206 -125 -242 -8 -14 -22 -39 -31 -55 -32 -59 -44 -79 -58 -95 -8 -10
-10 -18 -5 -18 5 0 4 -4 -2 -8 -6 -4 -25 -34 -44 -67 -19 -33 -36 -62 -39 -65
-11 -9 -71 -111 -71 -120 0 -5 -3 -10 -8 -12 -4 -1 -26 -34 -50 -73 -84 -139
-152 -250 -161 -265 -6 -8 -30 -55 -55 -105 -24 -49 -64 -119 -87 -155 -147
-226 -209 -337 -209 -373 0 -8 -3 -17 -7 -21 -22 -22 -20 -146 3 -197 16 -37
21 -40 53 -39 74 4 73 4 50 -37 -24 -43 -31 -104 -17 -145 6 -16 28 -41 49
-55 l39 -26 178 6 c97 4 195 9 217 12 22 2 63 7 90 9 28 3 75 8 105 11 167 18
274 26 395 30 66 2 129 6 140 8 89 20 458 26 1120 17 213 -2 447 11 610 35 62
9 209 47 220 56 5 5 15 9 23 9 7 0 34 10 60 21 26 12 83 36 127 54 324 131
528 253 670 401 156 161 254 359 292 589 9 50 9 263 0 370 -8 107 -16 129
-105 316 -22 46 -42 95 -43 109 -4 40 11 93 38 128 24 32 47 118 60 227 7 58
8 281 3 620 -2 88 1 199 5 247 7 78 5 94 -15 150 -23 64 -74 145 -130 208 -72
80 -86 97 -110 130 -49 67 -65 120 -49 165 11 32 21 115 21 170 -1 156 -49
306 -145 453 -86 131 -231 275 -281 278 -126 7 -173 61 -190 219 -8 75 -16
127 -23 155 -4 14 -7 27 -7 30 -6 33 -189 223 -301 311 -76 60 -198 139 -215
139 -5 0 -10 5 -10 10 0 6 -5 10 -11 10 -5 0 -36 12 -67 26 -31 15 -88 35
-125 45 -37 10 -71 21 -76 23 -5 3 -30 0 -57 -7 -62 -16 -149 -13 -209 8 -68
23 -194 96 -203 117 -2 4 -10 8 -17 8 -7 0 -15 4 -17 9 -6 17 -165 122 -236
156 -89 43 -135 50 -337 49 -175 0 -276 -9 -385 -33 -101 -21 -165 -39 -205
-56 -16 -7 -41 -16 -55 -20 -69 -21 -264 -138 -319 -192 -32 -31 -36 -29 -37
15 -2 87 -3 89 -35 103 -42 17 -128 14 -189 -6 -74 -25 -167 -89 -250 -174
-89 -91 -112 -120 -186 -227 -44 -65 -56 -91 -60 -129 -4 -56 -37 -111 -87
-149 -76 -58 -275 -125 -359 -121 -40 1 -275 49 -308 62 -8 3 -22 7 -30 9 -70
12 -171 51 -236 89 -60 36 -128 105 -164 168 -36 64 -73 104 -125 138 -41 26
-135 66 -170 72 -11 2 -27 6 -35 9 -38 13 -129 37 -165 44 -73 13 -174 52
-283 110 -59 31 -117 62 -129 68 -13 6 -23 14 -23 19 0 4 -4 7 -9 7 -5 0 -38
17 -72 38 -90 54 -165 94 -229 121 -95 41 -103 42 -131 12z"/>
</g>
</svg>
