<svg xmlns="http://www.w3.org/2000/svg" xmlns:xlink="http://www.w3.org/1999/xlink" width="340.21338" height="337.15338" viewBox="0 0 90.014788 89.205162"><defs><linearGradient id="a"><stop offset="0" stop-color="red"/><stop offset=".239023" stop-color="#ff7f00"/><stop offset=".390398" stop-color="#ff0"/><stop offset=".505535" stop-color="#0f0"/><stop offset=".664764" stop-color="#00f"/><stop offset=".809622" stop-color="indigo"/><stop offset="1" stop-color="#9400d3"/></linearGradient><linearGradient xlink:href="#a" id="b" x1="-.226614" y1="188.55714" x2="373.33334" y2="188.55714" gradientUnits="userSpaceOnUse" gradientTransform="matrix(.24093 0 0 .23866 .0546 .00039)"/></defs><g stroke="#000" stroke-width=".23979232"><path d="M57.00647398 27.29463036c2.673926 6.497907 5.785814 12.827261 8.229851 19.410594.988596 2.082474 1.070835 4.428408.776522 6.65181-1.141767 2.250951-1.803269 4.84197-3.996761 6.348218-1.235299.552417-2.964685-.887178-4.168272.33479-1.263729-.515873-3.191407-.881085-4.01891-2.016262-.809296-1.514336-1.300444-3.08647-.973285-4.807278-3.143026-2.675181-6.005484-5.616002-8.553796-8.85425-1.903797-2.784079-5.370635-3.602576-8.031743-5.374896-1.077909-1.351111-2.303918-2.595227-3.176135-4.094938-1.612417.547825-2.472173 1.811411-3.07232 3.321873-.324774 2.129561-.333736 4.347163-.537117 6.510564-1.177572-1.293652-2.175562-2.670255-2.248443-4.474159-.835471-2.279575-.0033-4.667667.476925-6.920968 1.220728-1.743836 1.633267-4.286919 3.879602-5.0165 2.999697-1.558693 5.916456-3.5758 9.401609-3.753074 2.131775-.527336 2.296311.953125.821521 2.206672-1.316788 1.896137-3.368953 3.401163-3.490746 5.871967-.36983 1.186271-.734901 4.182836.526709 1.637391.709031-1.561944 2.068936-2.276079 3.688354-2.652183 3.868148-1.609547 8.224744-1.271929 12.12314-2.839181 1.256503.228391 1.315312-2.070327 2.343295-1.49019zm-.180473-.536315c2.316166-.660362 4.355217-1.831615 6.278848-3.232931 3.697453-1.743025 7.644277-3.113943 10.819139-5.738809 3.114469-1.69951 6.307719-3.357386 9.040386-5.594574 2.212852-.424919 3.655151-2.178415 5.353975-3.4896116-2.164188-.030407-4.399984-.1690109-6.276639 1.0923746-1.902633 1.042788-3.990928 1.715667-5.91201 2.636521-1.81109 1.41528-4.47692.820235-6.219485 2.438722-1.811483 1.224968-3.947195 1.617035-5.986747 2.198137-1.488374 1.229986-3.205845 1.9577-5.112276 2.271152-.172562 1.795342.459162 3.885817-1.223992 5.126847-.742501.566715-.555857 1.487093-.761199 2.292172zm-5.684864-15.284967c-.667812-2.4766176-1.824228-4.7055089-3.459461-6.6916367-.9699-1.5830189-2.321616-2.8604504-3.578943-4.2134268.14578 3.1993831-.576844 6.4114997-.282984 9.5806965.116754 2.558244 1.730239 4.640844 2.990062 6.776899 1.427787 1.15226 3.065595-.377374 4.150855-1.340786.161242-1.374982.521315-2.733996.180471-4.111746z"/><path d="M51.40299898 11.58026136c1.838067.552382 3.553342 1.299662 4.777401 2.826623 1.771982 1.537176 2.698474 3.704923 2.982518 5.989087-.242368 1.736631-.776276 3.486186-2.090978 4.755153.313018 2.131618-1.810686 3.287477-3.479092 4.092117-3.560722 1.289351-7.622476.920965-11.148805 2.340157-1.768715.742141-3.434245 1.762981-4.583515 3.316908.160474-3.320441 2.274666-6.247441 4.320805-8.696842 2.532695-.530453.403616-1.934458-1.110439-1.462778-3.764709.484236-7.375419 1.902636-10.319461 4.312715-1.65357.969745-2.666871 2.828777-3.299035 4.5597-.673373 2.622477-1.487644 5.694501.269362 8.06723 1.267837 2.589647 3.563765 4.485333 5.0464 6.963541 2.050097 3.161891 5.197787 5.397856 7.949899 7.920509 3.888165 2.615616 7.638354 5.546984 10.716374 9.060026.865252 1.748501 1.91169 3.451099 1.67096 5.479812-.304338 1.619993-1.581076-1.855321-2.564516-2.070674-1.682925-1.561798-3.854389-2.431594-5.830379-3.5598 3.253011 3.429497 6.900941 7.461054 6.4277 12.516307.294792 2.718888-1.523189 5.073241-1.42267 7.797695.162456.958423-1.83255 3.907528-2.100806 2.264053-.528362-2.234999-1.840602-4.427344-4.165711-5.133123-1.715998-.937538-3.630298-1.505059-5.588483-1.612258.494242 1.271542 2.294333 2.59342 1.572129 3.967684-.709423.47275-1.954925-1.721173-3.303194-1.883674-4.273354-1.969442-8.780462-3.447671-13.006796-5.485942-1.665059-.971451-3.334224-1.936294-4.945963-2.993534 1.315329 2.416166.308852 1.589206-1.115395.178702-3.534435-3.061278-6.715694-6.530518-9.7199085-10.09086-2.5249457-3.112248-4.4302225-6.7465-5.1228247-10.702061-.5683658-2.811474-1.65450253-5.602288-1.76860597-8.454554.24508383-3.288711.53438633-6.699704 1.89531097-9.725758 2.0743744-3.170436 1.7270008-7.275237 3.6251092-10.558447.7935382-2.461625 2.5718738-4.432756 4.443475-6.147475 3.595463-1.927752 6.047029-5.175135 8.707662-8.142213 2.12507-1.410599 4.382907-2.5127915 6.91308-2.9823662 4.019057-1.1518536 8.300075-1.576482 12.400532-.5694874 1.991768.2384029 3.778607 1.1731759 5.645477 1.8359976.316266 2.511076 1.770765 4.676376 2.404539 7.056426.672424 1.067871 3.170844 1.094421 3.734776-.513812.937146-1.175947 1.403369-3.017048 1.183068-4.514784z"/></g><path d="M47.071078 88.804957c.745259-3.341304-7.211324-7.276087-7.672826-5.130261 1.419779 2.044765-.64801 4.390809-1.750236 1.599346-5.450345-3.049039-11.877331-4.18975-17.08439-7.766173-.536041.281328-1.159331 3.634885-2.165142.534821-2.897364-3.65094-6.9087-6.338702-9.7534468-10.09428-4.2030925-3.988691-6.1994062-9.503148-7.475694-14.995576-1.94009084-5.644426-1.47135629-12.071886 1.2500425-17.378687C3.7048786 28.67904 6.4449799 21.313098 12.930477 17.635102c3.293043-3.550454 6.466281-7.6746123 11.446782-9.0001457 5.850243-1.7488862 12.211581-1.6220797 18.025067.1936802 2.51498-.9032615-.255853-9.5294129 2.503107-8.01332725C47.436956 4.0138433 50.052904 7.1831615 51.54461 11.050257c3.218951 1.836127 6.842834 4.408443 7.963768 8.158836 3.866599-1.227429 7.613364-2.904516 11.164971-4.898163 4.090367-.521287 7.297938-2.835954 11.099985-4.4276237 2.572065-.7235947 5.897728-2.0537445 8.228468-1.4772359-2.994486 3.3467096-7.097798 5.3409146-10.924374 7.4325856-3.927277 2.104739-7.116703 5.020924-11.165016 6.785512-3.147948 1.939229-8.663026 3.145442-9.937406 6.159418 2.924181 7.407794 7.001613 14.438729 8.790827 22.236116-.243985 3.824357-2.068659 10.098574-6.792773 9.762125-4.474894 1.136652-7.656127-2.744805-8.151517-6.853387-4.029943-2.99519-6.750228-7.611793-10.387136-10.707865-4.208572-.566545-6.296908-5.647139-9.628741-6.402544-3.016788 3.763511-1.425735 9.449989 1.72337 12.683715 5.069794 6.347929 12.537879 10.176267 17.937405 16.164652 1.395428 1.700443 3.516325 6.89326.961944 7.502239-.100302-2.234946-5.925765-5.963314-5.612026-5.456446 4.084496 3.892855 6.209005 10.168227 3.948999 15.520304.60765 1.639159-2.331351 9.370125-3.69428 5.572462zm2.396162-3.894702c.062266-4.815803-1.742859-9.882851-5.874905-12.714225-4.872797-4.781147-10.683087-8.404497-16.233996-12.323051-5.749788-4.605346-11.038402-10.550075-12.120269-18.0615-1.530066-7.451089-.315685-15.579696 3.752915-22.048846 3.499858-3.939866 8.731033-6.151305 14.041547-5.670053 4.243809.187689 8.591301 1.026189 12.42842 2.626618-.512916-4.119081-3.589939-7.982727-8.384301-7.8544906-6.333265-.3272167-13.691629-.2882892-18.478367 4.4590556-5.722429 5.967767-9.2887802 13.974126-9.2225251 22.265924-.1804402 7.79816-.9189926 16.093505 3.0068911 23.21105 1.812034 3.447565 3.235206 7.212338 5.343348 10.462131 4.978354 4.710304 10.035492 9.905956 17.052231 11.372295 4.115044 1.434855 9.514755 1.278578 12.282106 5.096109 1.187859 3.336452 2.007072 2.45415 2.406905-.821017zm-10.221359.223276c-2.565611-4.624748-9.173547-3.910422-13.079227-7.075787-3.913989-2.873998-7.354813-6.436366-10.40607-10.187321-4.948941-8.42586-8.601517-17.994716-7.7658277-27.903041.2245737-7.131173.9866052-14.45729 4.5379687-20.813487-3.0385828 1.975812-5.554023 5.451553-6.6654929 9.061128-4.3421256 9.122495-1.3479226 19.382364 1.0816285 28.595289 1.770184 6.326092 6.1311324 11.581752 10.3410614 16.501891 5.264232 5.734312 13.061062 7.687854 19.996388 10.589253.54902-.139952 2.002589 2.492907 1.959571 1.232075zm11.526633-6.717372c-.198109-5.9023-4.31867-11.061912-9.61879-13.497371-6.314634-2.939148-11.534881-7.888858-15.692552-13.360824-3.805466-5.714902-7.181066-12.212946-6.720829-19.262466-.925382-6.98974 4.021417-14.178899 10.989844-15.732941.728839-.574206 6.944308-1.276926 3.900218-1.246052-5.703512-.177306-12.599387 1.360144-14.998954 7.159997-2.314068 4.598851-3.317629 9.719542-2.759947 14.839849-.0105 7.648027 3.713679 14.93166 9.595788 19.805997 5.771627 4.748575 12.586523 8.170268 17.921108 13.46068 3.866228 2.454794 6.125761 6.645017 6.861255 11.051867.433722-.958974.442446-2.156995.522859-3.218736zm-35.101032-5.044236c-4.100555-5.433632-8.8009424-10.86993-10.0005524-17.76933-1.5918214-5.624303-3.2009148-11.337308-3.0995514-17.232732-1.8043413 2.567898-1.91617985 9.350596-.6460504 13.476531 1.1473667 5.011698 2.5320511 10.198715 6.339977 13.932293 2.2598272 2.733545 5.7418922 7.161024 7.9045642 8.363327zm36.919803-3.285046c-1.783284-6.304755-8.438103-9.19288-13.062868-13.193711-3.973928-2.85646-7.055397-6.651271-9.923615-10.541668-4.759474-4.098925-8.932498-10.403144-7.234123-16.902139 1.449572-5.525717 7.625343-7.564459 12.789696-7.815898 4.423675-.750047 8.958269-.802899 13.278012.498413 5.234907 1.60703 5.538436-5.107708 4.496522-7.152617 3.670622 2.603779.704214 9.53573-4.055093 8.167232-4.986983-1.196003-10.075355-.994698-15.095016-.09318-4.427506.103802-9.122851 2.564369-10.153696 7.131965-1.927793 3.869512.636722 8.118588 2.733271 11.359627 3.043356 3.710874-1.596378-2.296439-.311766-4.114835.529468-4.450267 3.078703-9.016811 7.701212-10.250464 3.916293-2.789434 9.202269-2.664221 13.532282-.951957 3.908764.630654 9.942205.504422 11.092029-4.092158.482935-3.510269-3.360913-9.665886-6.603891-8.454545-.06711 5.582752-5.706965 5.164923-9.416366 3.384566-5.697838-1.393349-11.857409-.210441-16.858364 2.73493-5.399162 3.646757-6.695301 10.88539-5.397157 16.874708 2.289277 12.916394 12.340329 23.475691 24.19913 28.694157 2.531894.427807 7.665944 5.692415 8.289801 4.717577zm5.736105-10.749792c4.520977 1.30331 7.542884-4.136871 7.213993-8.261116-1.185245-6.591455-4.608959-12.502245-7.033113-18.693687-.928956-2.731996-1.97331-4.951782-4.560814-2.20181-4.936097 1.934418-11.418133.805635-15.116714 5.232267-2.435528 4.151049-1.300136-3.885186.0073-5.145225.345706-2.161577 6.334888-5.428083 1.032999-4.198087-5.838415 1.147976-12.113941 5.146665-12.590428 11.561686-.857362 1.456978 1.734469 6.761376 1.965413 5.53557.165283-2.87837-.180122-6.745596 3.285642-7.787549 2.279684-1.684253 2.113794 3.423847 4.305079 3.966853 3.359333 2.592989 7.662109 3.339675 9.591922 7.571198 1.706392 3.316553 7.200307 4.866509 7.049824 8.484924-.320649 2.232697 2.929791 5.099042 4.848849 3.934976zM43.53615 31.208321c4.092452-1.311112 9.522674-.303444 12.544259-3.865135.6981-1.958556-4.805493 1.368639-6.657197.282495-4.206975-1.58806-8.849592-.382505-10.216121 4.299696-2.301592 4.091559 2.884226-1.111535 4.329059-.717056zm16.553585-5.572933c3.169564-2.90312 7.919393-3.360154 11.202558-6.194472 3.544702-2.342241 7.376369-4.209689 10.731842-6.743194 2.944111-.437104 5.999265-3.8353287 1.166197-2.209954-4.039972 1.769962-7.956311 3.789864-12.22049 4.891982-3.231577 2.650717-8.733006 2.632285-11.390987 5.659097.647446 2.369464-4.475742 7.409884.51088 4.596541zm-11.384304-8.32993c3.591536-3.310956 1.186855-8.2868939-1.346367-11.4339258-1.703616-3.2486793-3.189624-2.7267664-2.85643.7686453-.364641 3.2883854.685002 10.1193145 4.202797 10.6652805z" fill="url(#b)" transform="translate(.01298598 -.63702764)"/></svg>