<?xml version="1.0" standalone="no"?>
<!DOCTYPE svg PUBLIC "-//W3C//DTD SVG 20010904//EN"
 "http://www.w3.org/TR/2001/REC-SVG-20010904/DTD/svg10.dtd">
<svg version="1.0" xmlns="http://www.w3.org/2000/svg"
 width="1051.000000pt" height="1051.000000pt" viewBox="0 0 1051.000000 1051.000000"
 preserveAspectRatio="xMidYMid meet">
<metadata>
Created by potrace 1.11, written by Peter Selinger 2001-2013
</metadata>
<g transform="translate(0.000000,1051.000000) scale(0.100000,-0.100000)"
fill="#000000" stroke="none">
<path d="M71 10435 c-72 -110 -87 -204 -55 -334 9 -36 27 -89 40 -117 20 -44
166 -270 183 -284 8 -7 117 -152 159 -213 56 -81 88 -140 106 -195 23 -68 131
-184 240 -256 66 -45 303 -166 322 -166 3 0 53 -23 111 -51 136 -65 225 -123
290 -189 52 -51 121 -152 128 -187 8 -43 55 -174 78 -220 85 -167 233 -284
502 -397 171 -73 268 -131 339 -204 49 -51 147 -193 172 -251 9 -20 20 -45 25
-56 20 -45 32 -81 34 -95 1 -8 7 -33 13 -55 18 -64 26 -142 26 -255 0 -157
-20 -275 -76 -450 -32 -102 -35 -109 -98 -245 -23 -49 -49 -108 -57 -130 -8
-22 -19 -49 -23 -60 -5 -11 -27 -66 -49 -122 -22 -56 -49 -121 -60 -145 -96
-209 -233 -556 -256 -648 -2 -8 -13 -46 -25 -85 -35 -119 -61 -294 -66 -440
-4 -116 -2 -157 15 -240 29 -137 27 -130 61 -228 116 -336 341 -596 625 -725
84 -38 209 -70 285 -74 64 -3 308 41 460 83 139 39 201 72 275 144 92 91 135
196 136 338 1 62 0 59 168 247 75 84 380 392 457 460 63 58 224 193 289 242
33 26 74 59 90 73 51 46 144 110 300 205 205 126 267 172 355 260 63 62 160
201 160 228 0 18 34 91 40 87 11 -7 37 -92 45 -148 11 -78 6 -226 -10 -317 -3
-14 -7 -38 -9 -55 -15 -103 -29 -185 -36 -215 -5 -19 -11 -46 -14 -60 -3 -14
-8 -36 -11 -50 -3 -14 -8 -38 -11 -55 -3 -16 -14 -70 -25 -120 -11 -49 -22
-101 -25 -115 -2 -14 -7 -36 -11 -50 -3 -14 -7 -30 -9 -36 -1 -6 -10 -38 -19
-70 -10 -33 -18 -63 -19 -69 -18 -81 -117 -374 -177 -521 -27 -67 -49 -124
-49 -127 0 -3 -13 -34 -29 -69 -16 -35 -41 -90 -56 -123 -87 -193 -130 -285
-194 -412 -40 -79 -72 -146 -72 -150 0 -5 -4 -12 -9 -18 -5 -5 -29 -50 -55
-100 -90 -173 -168 -320 -195 -370 -28 -51 -81 -151 -209 -398 -39 -75 -83
-170 -98 -209 -24 -69 -81 -190 -135 -288 -14 -25 -44 -81 -68 -125 -24 -44
-46 -84 -51 -90 -18 -24 -149 -297 -172 -360 -72 -196 -79 -362 -19 -485 l17
-35 74 3 c68 3 73 2 67 -15 -83 -211 -72 -326 37 -400 l47 -32 223 4 c122 2
231 6 242 8 11 2 56 8 100 11 84 8 153 15 195 21 14 2 48 7 75 10 28 3 84 10
125 15 41 5 100 12 130 15 30 3 73 8 95 10 22 3 112 7 200 10 140 5 229 13
339 31 48 8 192 21 326 29 88 5 525 6 680 0 644 -22 638 -22 1005 0 303 18
546 62 725 130 92 36 565 269 695 343 158 90 319 202 411 283 63 57 175 172
203 209 14 19 31 40 37 45 29 26 151 221 200 323 52 107 138 332 127 332 -3 0
0 7 7 15 7 8 10 15 7 15 -3 0 1 23 9 52 9 28 17 59 19 67 5 29 18 106 21 121
20 135 24 392 10 605 -12 185 -15 220 -16 220 -1 0 -3 11 -6 25 -9 49 -48 157
-110 305 -75 178 -93 241 -89 315 4 59 32 136 69 185 13 16 26 46 29 65 3 19
13 73 21 120 38 220 46 473 31 975 -8 289 -7 571 4 635 5 30 8 98 5 150 -5
117 -6 120 -15 120 -5 0 -6 6 -3 14 8 21 -67 185 -123 269 -26 40 -79 115
-118 167 -102 135 -132 182 -165 253 -35 75 -41 125 -23 197 21 87 28 165 27
305 -2 153 -7 196 -39 332 -72 304 -243 601 -484 844 -54 54 -59 56 -119 62
-82 7 -149 41 -184 92 -14 22 -26 42 -26 45 1 3 -2 12 -5 20 -7 18 -25 111
-32 164 -2 21 -7 55 -9 75 -3 20 -8 61 -11 91 -7 64 -14 115 -21 150 -2 14 -6
36 -9 50 -10 55 -200 295 -365 461 -236 237 -464 389 -715 474 l-110 38 -70
-17 c-97 -23 -145 -25 -226 -10 -109 21 -242 100 -399 237 -14 12 -54 47 -90
77 -36 30 -67 57 -70 60 -43 43 -207 152 -275 184 -63 29 -91 35 -199 43 -490
34 -915 -43 -1254 -229 -66 -35 -173 -103 -207 -130 -77 -61 -110 -89 -162
-140 l-63 -61 -1 74 c-1 86 -11 160 -22 159 -4 0 -22 7 -40 17 -23 12 -56 17
-117 16 -101 0 -165 -21 -267 -90 -76 -51 -234 -207 -303 -298 -25 -33 -47
-62 -50 -65 -9 -9 -147 -221 -166 -255 -6 -11 -27 -50 -47 -87 -26 -45 -37
-79 -37 -107 0 -167 -87 -287 -280 -385 -105 -53 -349 -127 -385 -117 -5 1
-91 23 -190 48 -451 113 -581 168 -729 311 -59 57 -97 111 -143 205 -104 210
-215 296 -493 383 -63 19 -128 41 -145 49 -16 7 -48 16 -70 20 -146 26 -350
125 -575 280 -25 17 -104 73 -176 123 -209 145 -345 225 -464 272 l-50 20 -49
-75z"/>
</g>
</svg>
